<svg width="93" height="116" viewBox="0 0 93 116" fill="none" xmlns="http://www.w3.org/2000/svg">
<path d="M20.7921 20.2054C16.2746 15.5904 16.2746 8.07625 20.7921 3.46125C25.3096 -1.15375 32.665 -1.15375 37.1825 3.46125C41.7 8.07625 41.7 15.5904 37.1825 20.2054C32.6071 24.8796 25.3096 24.8796 20.7921 20.2054ZM11.5833 82.8629V29.6129H0V82.8629C0 99.1929 12.9733 112.446 28.9583 112.446H63.7083V100.613H28.9583C19.3442 100.613 11.5833 92.6846 11.5833 82.8629ZM92.6667 106.944L63.3029 76.9463H43.4375V55.1729C51.5458 61.9771 64.2875 67.9529 75.2917 67.9529V55.1729C65.6775 55.2913 54.3837 50.0254 48.2446 43.1029L40.1362 33.9321C39.0358 32.6896 37.6458 31.6838 36.14 30.9738C34.4604 30.1454 32.5492 29.6129 30.58 29.6129H30.4062C23.2246 29.6129 17.375 35.5888 17.375 42.9254V76.9463C17.375 86.7679 25.1358 94.6963 34.75 94.6963H64.1137L84.3846 115.405L92.6667 106.944Z" fill="black"/>
</svg>
